<svg width="131" height="90" viewBox="0 0 131 90" fill="none" xmlns="http://www.w3.org/2000/svg">
<rect width="130.28" height="90" rx="11.25" fill="url(#paint0_linear)"/>
<path d="M103.7 24.2134V39.7839H34.0478L49.2793 24.8362C51.3419 22.8121 51.3419 19.5423 49.2793 17.5181C47.2167 15.494 43.8848 15.494 41.8222 17.5181L17.547 41.3409C15.4843 43.3651 15.4843 46.6349 17.547 48.6591L41.8222 72.4819C43.8848 74.506 47.2167 74.506 49.2793 72.4819C51.3419 70.4577 51.3419 67.1879 49.2793 65.1638L34.0478 50.1642H108.989C111.898 50.1642 114.278 47.8286 114.278 44.9741V24.2134C114.278 21.3588 111.898 19.0233 108.989 19.0233C106.08 19.0233 103.7 21.3588 103.7 24.2134Z" fill="white"/>
<defs>
<linearGradient id="paint0_linear" x1="65.14" y1="90" x2="65.14" y2="-2.88672e-06" gradientUnits="userSpaceOnUse">
<stop stop-color="#DC2743"/>
<stop offset="1" stop-color="#FF9233"/>
</linearGradient>
</defs>
</svg>
